<svg width="18" height="18" viewBox="0 0 18 18" fill="none" xmlns="http://www.w3.org/2000/svg">
<path d="M9 0.666687C9.46024 0.666687 9.83334 1.03978 9.83334 1.50002V2.33335C9.83334 2.79359 9.46024 3.16669 9 3.16669C8.53977 3.16669 8.16667 2.79359 8.16667 2.33335V1.50002C8.16667 1.03978 8.53977 0.666687 9 0.666687ZM14.8926 3.10746C15.218 3.43289 15.218 3.96053 14.8926 4.28597L14.3033 4.87522C13.9779 5.20066 13.4503 5.20066 13.1248 4.87522C12.7994 4.54979 12.7994 4.02215 13.1248 3.69671L13.7141 3.10746C14.0395 2.78202 14.5672 2.78202 14.8926 3.10746ZM3.10744 3.10746C3.43288 2.78202 3.96052 2.78202 4.28595 3.10746L4.87521 3.69671C5.20065 4.02215 5.20065 4.54979 4.87521 4.87523C4.54977 5.20066 4.02214 5.20066 3.6967 4.87523L3.10744 4.28597C2.78201 3.96053 2.78201 3.4329 3.10744 3.10746ZM9 5.66669C7.15905 5.66669 5.66667 7.15907 5.66667 9.00002C5.66667 10.841 7.15905 12.3334 9 12.3334C10.841 12.3334 12.3333 10.841 12.3333 9.00002C12.3333 7.15907 10.841 5.66669 9 5.66669ZM4 9.00002C4 6.2386 6.23858 4.00002 9 4.00002C11.7614 4.00002 14 6.2386 14 9.00002C14 11.7614 11.7614 14 9 14C6.23858 14 4 11.7614 4 9.00002ZM0.666672 9.00002C0.666672 8.53978 1.03977 8.16669 1.5 8.16669H2.33334C2.79358 8.16669 3.16667 8.53978 3.16667 9.00002C3.16667 9.46026 2.79358 9.83335 2.33334 9.83335H1.5C1.03977 9.83335 0.666672 9.46026 0.666672 9.00002ZM14.8333 9.00002C14.8333 8.53978 15.2064 8.16669 15.6667 8.16669H16.5C16.9602 8.16669 17.3333 8.53978 17.3333 9.00002C17.3333 9.46026 16.9602 9.83335 16.5 9.83335H15.6667C15.2064 9.83335 14.8333 9.46026 14.8333 9.00002ZM3.6967 13.1248C4.02214 12.7994 4.54977 12.7994 4.87521 13.1248C5.20065 13.4502 5.20065 13.9779 4.87521 14.3033L4.28595 14.8926C3.96052 15.218 3.43288 15.218 3.10744 14.8926C2.78201 14.5671 2.78201 14.0395 3.10744 13.7141L3.6967 13.1248ZM13.1248 14.3033C12.7994 13.9779 12.7994 13.4502 13.1248 13.1248C13.4503 12.7994 13.9779 12.7994 14.3033 13.1248L14.8926 13.7141C15.218 14.0395 15.218 14.5671 14.8926 14.8926C14.5672 15.218 14.0395 15.218 13.7141 14.8926L13.1248 14.3033ZM9 14.8334C9.46024 14.8334 9.83334 15.2064 9.83334 15.6667V16.5C9.83334 16.9603 9.46024 17.3334 9 17.3334C8.53977 17.3334 8.16667 16.9603 8.16667 16.5V15.6667C8.16667 15.2064 8.53977 14.8334 9 14.8334Z" fill="#1C1D22"/>
</svg>
